<?xml version="1.0" encoding="UTF-8" standalone="no"?>
<!-- Created with Inkscape (http://www.inkscape.org/) -->

<svg
   width="18"
   height="18"
   viewBox="0 0 4.7624999 4.7625"
   version="1.1"
   id="svg5"
   inkscape:version="1.2 (dc2aedaf03, 2022-05-15)"
   sodipodi:docname="files.svg"
   xmlns:inkscape="http://www.inkscape.org/namespaces/inkscape"
   xmlns:sodipodi="http://sodipodi.sourceforge.net/DTD/sodipodi-0.dtd"
   xmlns="http://www.w3.org/2000/svg"
   xmlns:svg="http://www.w3.org/2000/svg">
  <sodipodi:namedview
     id="namedview7"
     pagecolor="#505050"
     bordercolor="#eeeeee"
     borderopacity="1"
     inkscape:showpageshadow="true"
     inkscape:pageopacity="0"
     inkscape:pagecheckerboard="true"
     inkscape:deskcolor="#505050"
     inkscape:document-units="px"
     showgrid="false"
     inkscape:zoom="27.423469"
     inkscape:cx="6.0532093"
     inkscape:cy="9.8638139"
     inkscape:window-width="1366"
     inkscape:window-height="697"
     inkscape:window-x="-8"
     inkscape:window-y="-8"
     inkscape:window-maximized="1"
     inkscape:current-layer="layer1" />
  <defs
     id="defs2">
    <linearGradient
       id="linearGradient2932"
       inkscape:swatch="solid">
      <stop
         style="stop-color:#b3b3b3;stop-opacity:1;"
         offset="0"
         id="stop2930" />
    </linearGradient>
    <clipPath
       clipPathUnits="userSpaceOnUse"
       id="clipPath6986">
      <path
         id="path6988"
         style="fill:#ff0000;fill-opacity:1;fill-rule:nonzero;stroke:none;stroke-width:0.264583"
         d="M 0,0.89606934 V 3.8664306 H 4.3253173 V 3.6726439 c -0.012025,0.011925 -0.024461,0.023106 -0.040308,0.027389 -0.082995,0.022421 -0.1181934,-0.017547 -0.1570961,-0.081132 -0.00888,-0.014515 -0.00805,-0.033156 -0.012404,-0.049609 -0.010393,-0.03933 -0.011324,-0.04092 -0.02377,-0.080615 -0.025331,-0.087561 -0.035696,-0.1782484 -0.03514,-0.2692341 3.704e-4,-0.059088 0.00625,-0.1178767 0.010853,-0.1767335 -0.00101,-0.016399 -0.00278,-0.06809 -0.00259,-0.1018027 7.937e-4,-0.062063 6.085e-4,-0.1244859 5.291e-4,-0.1865519 -2.4e-6,-0.00791 -0.00101,-0.015415 0,-0.023254 0.00274,-0.02128 0.00593,-0.04276 0.01292,-0.063045 0.00409,-0.011843 0.00918,-0.023359 0.013436,-0.03514 3.704e-4,-0.00105 0.0013,-0.00437 5.291e-4,-0.00362 -0.00169,0.00156 -0.00204,0.00415 -0.0031,0.0062 -0.010962,-0.039791 4.763e-4,-0.076258 0.00775,-0.1157552 0.00188,-0.033224 -0.00241,-0.066384 -0.00259,-0.099735 0.00127,-0.024141 6.085e-4,-0.048184 5.292e-4,-0.072347 -9.21e-5,-0.0229 -2.91e-5,-0.045829 0,-0.06873 -0.00937,-0.016249 -0.015452,-0.032917 -0.012404,-0.057361 0.00243,-0.019466 0.010962,-0.037256 0.017571,-0.055811 -0.00212,0.00807 -0.00406,0.018198 -0.00206,0.013436 0.00496,-0.012098 0.00882,-0.024264 0.01292,-0.03669 -2.466e-4,-4.789e-4 -2.91e-4,-0.00106 -5.291e-4,-0.00155 -7.144e-4,0.00254 -0.00175,0.00474 -0.00259,0.00723 -5.291e-4,0.0016 -9.525e-4,0.00307 -0.00156,0.00465 l -5.292e-4,5.159e-4 c 6.83e-5,-4.868e-4 3.175e-4,-0.00162 5.292e-4,-0.00258 7.144e-4,-0.00342 0.00243,-0.00818 0.0031,-0.011369 -0.00212,-0.00118 -0.00332,-0.00133 -0.00259,5.159e-4 -0.00653,-0.00629 -0.019571,-0.017878 -0.029972,-0.027388 -0.024495,-0.00865 -0.067089,-0.021036 -0.084749,-0.026355 C 3.8191559,2.0341757 3.8436637,1.870362 3.975967,1.8655165 c 0.0245,-8.969e-4 0.05293,0.00381 0.084233,0.015503 0.021696,0.00811 0.049525,0.014495 0.075964,0.022737 7.144e-4,-7.144e-4 0.00172,-0.00142 0.00259,-0.00207 -0.00735,-0.0085 -0.00665,-0.020065 0.00206,-0.027905 -0.027987,-0.00523 -0.032282,-0.030454 -0.01292,-0.041858 -0.00711,-0.0085 -0.00684,-0.020594 0.00156,-0.028422 0.00558,-0.00469 0.014822,-0.00893 0.026355,-0.0093 7.143e-4,-2.31e-5 0.00132,0 0.00206,0 h 0.041341 0.03514 0.025321 0.02222 0.019122 0.012404 c 0.00446,0 0.00826,2.672e-4 0.011885,0.00103 V 0.89606934 Z M 4.1129272,2.1316528 c -6.35e-4,0.00123 -0.00143,0.00239 -0.00206,0.00362 2.135e-4,3.228e-4 2.91e-4,7.302e-4 5.292e-4,0.00103 4.233e-4,-0.00155 0.00114,-0.00309 0.00156,-0.00465 z m 0.00103,0.1777669 c 2.911e-4,8.678e-4 7.408e-4,0.00168 0.00103,0.00259 4.498e-4,0.00128 0.00323,0.00426 0.00259,0.0031 -0.00119,-0.00202 -0.00243,-0.00376 -0.00362,-0.00568 z" />
    </clipPath>
    <clipPath
       clipPathUnits="userSpaceOnUse"
       id="clipPath6996">
      <path
         id="path6998"
         style="fill:#ff0000;fill-opacity:1;fill-rule:nonzero;stroke:none;stroke-width:0.264583"
         d="M 0.0883667,1.7084228 V 3.7511921 H 4.6839518 V 1.7084228 Z m 4.065385,0.085783 c 7.143e-4,-5.25e-5 0.00135,2.31e-5 0.00206,0 7.144e-4,-2.31e-5 0.00132,0 0.00206,0 h 0.041341 0.03514 0.025321 0.02222 0.019121 0.012404 c 0.038694,0 0.045888,0.031511 0.021704,0.043408 0.00876,0.010606 0.00517,0.025891 -0.010335,0.033073 0.00873,0.00526 0.012486,0.013537 0.011369,0.021187 0.00334,-0.00175 0.00302,-0.00101 0.00878,-0.00413 0.00888,-0.0048 0.017137,-0.010393 0.025839,-0.015503 0.00706,-0.00414 0.0137,-0.00647 0.019637,-0.00723 0.0018,-2.299e-4 0.00351,-5.45e-4 0.00517,-5.159e-4 0.024828,4.101e-4 0.033936,0.028759 0.00206,0.047542 -0.029307,0.017284 -0.027868,0.017251 -0.058911,0.032039 -7.408e-4,3.466e-4 -0.00132,7.011e-4 -0.00206,0.00103 0.00943,0.00889 0.018031,0.018796 0.025321,0.028939 0.010168,0.014148 0.011187,0.033027 0.016536,0.049609 l -5.292e-4,5.159e-4 c 0.00457,0.027591 0.00918,0.053976 5.292e-4,0.082166 -0.00391,0.012657 -0.01088,0.024127 -0.017571,0.035657 0.0014,0.00833 0.00274,0.016465 0.00414,0.024805 4.234e-4,3.096e-4 0.00106,0.00164 0.00206,0.00413 0.0035,0.00873 0.00643,0.017582 0.00982,0.026355 -6.35e-4,-0.00184 -0.00103,-0.00372 -0.00156,-0.00568 0.00119,0.00371 0.00259,0.00758 0.00362,0.010335 0.00177,0.00478 0.00352,0.00974 0.00414,0.010852 3.07e-5,-0.00217 -0.00455,-0.020332 -0.00568,-0.025321 0.00188,0.00493 0.00762,0.020532 0.019121,0.055294 0.00308,0.00932 0.0047,0.019449 0.00723,0.028939 0.0075,0.028079 0.00918,0.032179 0.018087,0.060461 0.00362,0.013234 0.013385,0.043572 0.011885,0.057361 -0.00235,0.021625 -0.010679,0.042142 -0.01447,0.063562 0.00161,-0.00317 0.00587,-0.012034 0.00723,-0.014469 l 5.291e-4,-5.159e-4 c 0.00175,0.00381 -8.97e-5,0.00821 0,0.012402 0.00164,0.035731 0.00193,0.071212 0.00156,0.1069702 -0.00622,0.045783 -0.016685,0.0902 -0.037207,0.1317747 -0.0014,0.00283 -0.00249,0.00454 -0.00362,0.00672 -1.19e-5,5.027e-4 5.3e-6,0.00106 0,0.00156 -1.799e-4,0.018486 -0.00164,0.037054 -0.00465,0.055294 -0.00411,0.024948 -0.017727,0.03646 -0.00672,0.026872 0.00277,0.033718 0.00114,0.066609 -0.00259,0.1002519 -0.00209,0.018987 -0.00703,0.037159 -0.0062,0.056327 3.969e-4,0.040525 -0.012004,0.07977 -0.0093,0.1204061 0.00307,0.034559 0.00183,0.069239 0.00156,0.1038698 7.91e-5,0.061962 2.46e-5,0.1235552 0,0.1855185 0.011369,0.044483 0.014393,0.089378 0.0093,0.1348753 3.705e-4,0.014589 5.027e-4,0.029793 5.292e-4,0.044442 -1.45e-4,0.017235 -1.53e-5,0.034441 0,0.051676 2.9e-6,0.00318 8.202e-4,0.00622 0,0.0093 -0.00557,0.020989 -0.012761,0.041764 -0.019121,0.062528 -0.021855,0.017089 -0.038845,0.043919 -0.065629,0.05116 -0.082995,0.022421 -0.1181934,-0.017547 -0.1570961,-0.081132 -0.00888,-0.014515 -0.00805,-0.033156 -0.012404,-0.049609 -0.010393,-0.03933 -0.011324,-0.04092 -0.02377,-0.080615 -0.025331,-0.087561 -0.035696,-0.1782474 -0.03514,-0.2692342 3.705e-4,-0.059088 0.00625,-0.1178766 0.010853,-0.1767334 -0.00101,-0.016399 -0.00278,-0.06809 -0.00259,-0.1018027 7.938e-4,-0.062063 6.086e-4,-0.1244859 5.292e-4,-0.1865519 -2.1e-6,-0.00791 -0.00101,-0.015415 0,-0.023254 0.00274,-0.021281 0.00593,-0.04276 0.01292,-0.063045 0.00409,-0.011843 0.00918,-0.023359 0.013435,-0.03514 3.705e-4,-0.00105 0.0013,-0.00437 5.292e-4,-0.00362 -0.00169,0.00156 -0.00204,0.00415 -0.0031,0.0062 -0.010962,-0.039791 4.762e-4,-0.076258 0.00775,-0.1157552 0.00188,-0.033224 -0.00241,-0.066388 -0.00259,-0.099735 0.00127,-0.024141 6.085e-4,-0.048184 5.291e-4,-0.072347 -9.2e-5,-0.0229 -2.91e-5,-0.04583 0,-0.06873 -0.00937,-0.016249 -0.015452,-0.032917 -0.012404,-0.057361 0.00243,-0.019466 0.010962,-0.037259 0.017571,-0.05581 -0.00212,0.00807 -0.00406,0.018198 -0.00206,0.013436 0.00496,-0.012098 0.00882,-0.024264 0.01292,-0.03669 -2.466e-4,-4.789e-4 -2.91e-4,-0.00106 -5.292e-4,-0.00155 -7.143e-4,0.00254 -0.00175,0.00474 -0.00259,0.00723 -5.292e-4,0.0016 -9.525e-4,0.00307 -0.00156,0.00465 l -5.292e-4,5.159e-4 c 6.83e-5,-4.868e-4 3.175e-4,-0.00161 5.292e-4,-0.00259 7.143e-4,-0.00342 0.00243,-0.00818 0.0031,-0.011369 -0.00212,-0.00118 -0.00332,-0.00133 -0.00259,5.159e-4 -0.00655,-0.00629 -0.019571,-0.01788 -0.029972,-0.027389 -0.024495,-0.00865 -0.06709,-0.021036 -0.084749,-0.026355 C 3.8191971,2.0341909 3.843679,1.870375 3.9759829,1.8655296 c 0.0245,-8.969e-4 0.052931,0.00381 0.084232,0.015503 0.021696,0.00811 0.049526,0.014493 0.075965,0.022738 7.144e-4,-7.144e-4 0.00172,-0.00142 0.00259,-0.00207 -0.00735,-0.0085 -0.00665,-0.020065 0.00206,-0.027905 -0.027818,-0.0052 -0.031934,-0.030321 -0.01292,-0.041858 -0.00711,-0.0085 -0.00684,-0.020593 0.00156,-0.028422 0.00523,-0.0044 0.013748,-0.00851 0.024289,-0.0093 z m -0.040825,0.3374471 c -6.35e-4,0.00123 -0.00143,0.00239 -0.00206,0.00362 2.135e-4,3.228e-4 2.91e-4,7.302e-4 5.292e-4,0.00103 4.233e-4,-0.00155 0.00114,-0.00309 0.00156,-0.00465 z m 0.00103,0.1777669 c 2.911e-4,8.678e-4 7.408e-4,0.00168 0.00103,0.00259 4.498e-4,0.00128 0.00323,0.00426 0.00259,0.0031 -0.00119,-0.00202 -0.00243,-0.00376 -0.00362,-0.00568 z M 4.3847435,2.701644 c -0.00961,0.017865 -0.00562,0.00537 -0.0093,0.018087 0.01324,0.01651 0.011782,-4.233e-4 0.0093,-0.018087 z" />
    </clipPath>
    <clipPath
       clipPathUnits="userSpaceOnUse"
       id="clipPath7006">
      <path
         id="path7008"
         style="fill:#ff0000;fill-opacity:1;fill-rule:nonzero;stroke:none;stroke-width:0.264583"
         d="M 0.06769613,1.6195394 V 3.790983 H 4.7929889 V 1.6195394 Z M 4.1537517,1.7942057 c 7.143e-4,-5.25e-5 0.00135,2.31e-5 0.00206,0 7.144e-4,-2.31e-5 0.00132,0 0.00206,0 h 0.041341 0.03514 0.025321 0.02222 0.019121 0.012404 c 0.038866,0 0.045759,0.031636 0.021188,0.043408 0.00929,0.010823 0.00584,0.026433 -0.010335,0.03359 0.00903,0.00542 0.013221,0.01334 0.011885,0.021187 0.00283,-0.00156 0.00465,-0.00241 0.00878,-0.00465 0.00888,-0.0048 0.017137,-0.010393 0.025839,-0.015503 0.00706,-0.00414 0.0137,-0.00647 0.019637,-0.00723 0.028603,-0.00368 0.04122,0.02699 0.00723,0.047026 -0.029307,0.017284 -0.027868,0.017251 -0.058911,0.032039 -0.00644,0.00306 -0.013158,0.00581 -0.019637,0.00879 -4.762e-4,2.169e-4 -9.26e-4,0.00154 -0.00103,0.00103 -1.024e-4,-4.498e-4 8.97e-5,-0.0011 0,-0.00155 -0.013764,0.00844 -0.016097,0.00845 -0.020669,-0.014986 -5.027e-4,0.00105 -0.00101,0.00213 -0.00156,0.0031 0.00111,0.00438 0.00233,0.00895 0.0031,0.013436 1.799e-4,0.00101 -0.00156,-3.88e-5 -0.00259,0 -0.00183,6.93e-5 -0.00386,4.498e-4 -0.00568,5.16e-4 -0.00124,4.49e-5 -0.00238,-3.89e-5 -0.00362,0 -0.00151,0.00216 -0.00319,0.00455 -0.00414,0.00568 l -5.292e-4,5.16e-4 c -0.00784,0.00944 -0.012927,0.00139 -0.016536,-0.00723 -0.00314,-6.853e-4 -0.00543,-8.864e-4 -0.0062,-0.00103 -5.821e-4,-2.417e-4 -0.00135,-7.753e-4 -0.0062,-0.0031 6.086e-4,3.519e-4 0.00146,0.00103 0.00103,0.00103 -0.00235,-1e-5 -0.00442,-0.00153 -0.00672,-0.00207 -0.00276,-6.429e-4 -0.00451,-4.524e-4 -0.00723,-5.159e-4 -0.012338,0.00174 -0.024357,-0.00324 -0.03669,-0.0031 -9.525e-4,9.12e-5 -0.0022,2.963e-4 -0.0031,0 -0.00568,-0.00183 -0.011869,-0.00331 -0.017052,-0.0062 -0.00266,-2.459e-4 -0.00492,-4.762e-4 -0.00517,-5.159e-4 -0.00101,-4e-5 -0.00209,4e-5 -0.0031,0 -0.027164,-0.00108 -0.037066,-0.017972 -0.03204,-0.031523 -0.012613,-0.0086 -0.013195,-0.023186 -0.00206,-0.032556 -0.028555,-0.00497 -0.032991,-0.030406 -0.013436,-0.041858 -0.00711,-0.0085 -0.00684,-0.020594 0.00156,-0.028422 0.00523,-0.0044 0.013748,-0.00851 0.024289,-0.0093 z" />
    </clipPath>
  </defs>
  <g
     inkscape:label="Capa 1"
     inkscape:groupmode="layer"
     id="layer1">
    <rect
       style="fill:none;fill-opacity:1;stroke:#b2b2b2;stroke-width:0.166365;stroke-linejoin:round;stroke-dasharray:none;stroke-opacity:1"
       id="rect219"
       width="4.1588898"
       height="2.8037868"
       x="0.083182625"
       y="0.97935659"
       ry="0.16693299"
       clip-path="url(#clipPath6986)"
       transform="matrix(0.99206537,0,0,1.0002291,3.3884534e-4,-5.4555202e-4)" />
    <rect
       style="fill:#b3b3b3;fill-opacity:1;stroke:#b2b2b2;stroke-width:0.132292;stroke-linejoin:round;stroke-dasharray:none;stroke-opacity:1"
       id="rect3950"
       width="1.6889693"
       height="0.23567013"
       x="0.2454897"
       y="0.75610816"
       ry="0.11783507" />
    <path
       style="fill:none;stroke:#000000;stroke-width:0;stroke-linecap:butt;stroke-linejoin:miter;stroke-opacity:1;stroke-dasharray:none"
       d="M 0.08837629,3.7510825 0.46152061,1.7086083 H 4.6839433 l -0.402603,2.0424742 z"
       id="path4019"
       clip-path="url(#clipPath6996)" />
    <path
       style="fill:none;stroke:#b2b2b2;stroke-width:0.160557;stroke-linecap:round;stroke-linejoin:round;stroke-dasharray:none;stroke-opacity:1;paint-order:normal"
       d="m 4.2310987,3.681468 0.4813997,-1.9817755 -4.29285552,0.00981 -0.2714452,2.001397 z"
       id="path4021"
       sodipodi:nodetypes="ccccc"
       clip-path="url(#clipPath7006)"
       transform="matrix(0.9910102,0,0,0.99632334,8.2242021e-4,0.01415153)" />
  </g>
</svg>
