<?xml version="1.0" encoding="UTF-8" standalone="no"?>
<svg
   width="18"
   height="18"
   version="1.1"
   viewBox="0 0 18 18"
   id="svg7"
   sodipodi:docname="folder-grey.svg"
   inkscape:version="1.2.1 (9c6d41e410, 2022-07-14)"
   xmlns:inkscape="http://www.inkscape.org/namespaces/inkscape"
   xmlns:sodipodi="http://sodipodi.sourceforge.net/DTD/sodipodi-0.dtd"
   xmlns="http://www.w3.org/2000/svg"
   xmlns:svg="http://www.w3.org/2000/svg">
  <sodipodi:namedview
     id="namedview9"
     pagecolor="#505050"
     bordercolor="#eeeeee"
     borderopacity="1"
     inkscape:showpageshadow="0"
     inkscape:pageopacity="0"
     inkscape:pagecheckerboard="true"
     inkscape:deskcolor="#505050"
     showgrid="false"
     inkscape:zoom="14.75"
     inkscape:cx="8"
     inkscape:cy="8"
     inkscape:window-width="1366"
     inkscape:window-height="744"
     inkscape:window-x="0"
     inkscape:window-y="24"
     inkscape:window-maximized="1"
     inkscape:current-layer="svg7" />
  <defs
     id="defs3">
    <style
       id="current-color-scheme"
       type="text/css">.ColorScheme-Text { color:#bdc3c7; }</style>
  </defs>
  <path
     d="m 2.2591958,1.697462 c -1.2448019,0 -2.2469348,1.0021329 -2.2469348,2.2469348 V 14.055603 c 0,1.244802 1.0021329,2.246935 2.2469348,2.246935 H 15.740805 c 1.244801,0 2.246934,-1.002133 2.246934,-2.246935 V 5.0678642 c 0,-1.2448019 -1.002133,-2.2469348 -2.246934,-2.2469348 H 13.49387 7.1699841 C 6.5185416,2.795202 6.4905785,2.9073083 6.0025892,2.4193797 5.5152178,1.9320083 5.3139373,1.6979676 4.5061306,1.697462 Z m 0,1.1234674 h 2.2469348 c 0.3495781,-1.9e-6 0.5845738,1.554e-4 1.1212766,0.5288161 0.5378825,0.5298385 0.717671,0.5946513 1.1234674,0.5946513 h 6.7430514 2.246935 c 0.622401,0 1.123467,0.5010665 1.123467,1.1234674 V 6.1913316 H 1.1357846 V 3.9443968 c 0,-0.6224009 0.5010664,-1.1234674 1.1234674,-1.1234674 z M 1.1357284,7.314799 H 16.864272 v 6.740804 c 0,0.622401 -0.501067,1.123468 -1.123467,1.123468 H 2.2591958 c -0.6224009,0 -1.1234674,-0.501067 -1.1234674,-1.123468 z"
     style="fill:currentColor;stroke-width:1.12347"
     class="ColorScheme-Text"
     id="path5" />
</svg>
