<?xml version="1.0" encoding="UTF-8" standalone="no"?>
<svg
   width="18"
   height="18"
   version="1.1"
   id="svg15"
   sodipodi:docname="folder-home.svg"
   inkscape:version="1.2.1 (9c6d41e410, 2022-07-14)"
   xmlns:inkscape="http://www.inkscape.org/namespaces/inkscape"
   xmlns:sodipodi="http://sodipodi.sourceforge.net/DTD/sodipodi-0.dtd"
   xmlns="http://www.w3.org/2000/svg"
   xmlns:svg="http://www.w3.org/2000/svg">
  <sodipodi:namedview
     id="namedview17"
     pagecolor="#505050"
     bordercolor="#eeeeee"
     borderopacity="1"
     inkscape:showpageshadow="0"
     inkscape:pageopacity="0"
     inkscape:pagecheckerboard="0"
     inkscape:deskcolor="#505050"
     showgrid="false"
     inkscape:zoom="12.574055"
     inkscape:cx="5.010317"
     inkscape:cy="13.838018"
     inkscape:window-width="1366"
     inkscape:window-height="744"
     inkscape:window-x="0"
     inkscape:window-y="24"
     inkscape:window-maximized="1"
     inkscape:current-layer="svg15">
    <inkscape:grid
       type="xygrid"
       id="grid300" />
  </sodipodi:namedview>
  <defs
     id="defs3">
    <style
       id="current-color-scheme"
       type="text/css">.ColorScheme-Text { color:#dedede; }</style>
  </defs>
  <g
     fill="currentColor"
     class="ColorScheme-Text"
     id="g13"
     transform="matrix(1.1299828,0,0,1.1299828,-0.03988048,-0.60479408)">
    <path
       d="M 8,1 0,7.1289 0.0019531,7.1308532 0,7.1328063 l 0.076172,0.097656 1.125,1.498 0.79883,-0.61133 v 7.8827997 h 12 V 8.1171323 l 0.79883,0.61133 1.2012,-1.5996 -8,-6.1289 z m 0,2.5195 5,3.8301 V 15 H 9 V 11 H 7 v 4 H 3 V 7.3496 Z"
       opacity="0.8"
       id="path5" />
    <path
       d="m 12.156,2 c -0.08659,0 -0.15634,0.069665 -0.15634,0.15615 v 0.55087 l 1.9903,1.5436 v -2.0945 c 0,-0.086487 -0.06975,-0.15615 -0.15633,-0.15615 z"
       opacity="0.8"
       id="path7" />
    <path
       d="M 8,3.5195 3,7.3496 V 15 h 4 v -4 h 2 v 4 h 4 V 7.3496 Z M 7,7 H 9 V 9 H 7 Z"
       opacity="0.1"
       id="path9" />
    <path
       d="m 6,6 v 3.9988 h 4 V 6 Z M 7,7 H 9 V 9 H 7 Z"
       opacity="0.55"
       id="path11" />
  </g>
</svg>
