<?xml version="1.0" encoding="UTF-8" standalone="no"?>
<svg
   width="18"
   height="18"
   viewBox="0 0 18 18"
   version="1.1"
   id="svg6"
   sodipodi:docname="settings.svg"
   inkscape:version="1.2 (dc2aedaf03, 2022-05-15)"
   xmlns:inkscape="http://www.inkscape.org/namespaces/inkscape"
   xmlns:sodipodi="http://sodipodi.sourceforge.net/DTD/sodipodi-0.dtd"
   xmlns="http://www.w3.org/2000/svg"
   xmlns:svg="http://www.w3.org/2000/svg">
  <defs
     id="defs10" />
  <sodipodi:namedview
     id="namedview8"
     pagecolor="#505050"
     bordercolor="#eeeeee"
     borderopacity="1"
     inkscape:showpageshadow="0"
     inkscape:pageopacity="0"
     inkscape:pagecheckerboard="0"
     inkscape:deskcolor="#505050"
     showgrid="false"
     inkscape:zoom="12.125"
     inkscape:cx="32.907216"
     inkscape:cy="16.536082"
     inkscape:window-width="1366"
     inkscape:window-height="697"
     inkscape:window-x="-8"
     inkscape:window-y="-8"
     inkscape:window-maximized="1"
     inkscape:current-layer="svg6" />
  <path
     d="M 0,0 H 48 V 48 H 0 Z"
     fill="none"
     id="path2" />
  <path
     d="m 15.659157,9.8741404 c 0.03586,-0.2868972 0.06276,-0.5782776 0.06276,-0.8741403 0,-0.2958627 -0.02689,-0.5872431 -0.06276,-0.8741403 L 17.555369,6.6420625 C 17.725714,6.5075794 17.775025,6.2655098 17.662955,6.0682679 L 15.869847,2.9617075 C 15.757778,2.7689483 15.524674,2.6882585 15.322949,2.7689483 l -2.23242,0.901037 C 12.628803,3.3158464 12.122251,3.0155008 11.575352,2.7868795 L 11.239144,0.41101077 C 11.1988,0.20032053 11.015006,0.034458 10.790868,0.034458 H 7.20465 c -0.2241386,0 -0.4079322,0.16586253 -0.4437943,0.37655277 L 6.4246479,2.7868795 C 5.8777498,3.0155008 5.3711967,3.3113636 4.9094713,3.6699853 L 2.6770512,2.7689483 c -0.2017247,-0.076207 -0.4348288,0 -0.5468981,0.1927592 L 0.33704477,6.0682679 C 0.22497549,6.261027 0.27428597,6.5030966 0.44463128,6.6420625 L 2.3363606,8.1258598 c -0.035862,0.2868972 -0.062759,0.5782776 -0.062759,0.8741403 0,0.2958627 0.026897,0.5872431 0.062759,0.8741403 L 0.44463128,11.357938 c -0.17034531,0.134483 -0.21965579,0.376553 -0.10758651,0.573794 l 1.79310833,3.106561 c 0.1120693,0.192759 0.3451734,0.273449 0.5468981,0.192759 l 2.2324201,-0.901037 c 0.4617254,0.354139 0.9682785,0.654485 1.5151766,0.883106 l 0.3362078,2.375869 c 0.035862,0.210689 0.2196557,0.376552 0.4437943,0.376552 h 3.586218 c 0.224138,0 0.407932,-0.165863 0.443794,-0.376552 l 0.336208,-2.375869 c 0.546898,-0.228621 1.053451,-0.524485 1.515177,-0.883106 l 2.232419,0.901037 c 0.201725,0.07621 0.434829,0 0.546898,-0.192759 l 1.793109,-3.106561 c 0.112069,-0.192759 0.06276,-0.434829 -0.107586,-0.573794 z M 8.9977591,12.13794 c -1.7348331,0 -3.1379404,-1.403107 -3.1379404,-3.1379399 0,-1.7348324 1.4031073,-3.1379397 3.1379404,-3.1379397 1.7348319,0 3.1379399,1.4031073 3.1379399,3.1379397 0,1.7348329 -1.403108,3.1379399 -3.1379399,3.1379399 z"
     id="path4"
     style="stroke-width:0.448277;fill:#b3b3b3" />
</svg>
